<svg preserveAspectRatio="none" width="100%" height="100%" overflow="visible" style="display: block;" viewBox="0 0 24.0556 24.0556" fill="none" xmlns="http://www.w3.org/2000/svg">
<g id="Velt Logo - Home Link">
<g id="Vector 182">
<path d="M15.3603 7.82791L12.6875 11.7376L17.9737 12.1523L15.3603 7.82791Z" fill="var(--fill-0, white)"/>
<path d="M16.0731 7.59096L18.2113 11.0268L17.9737 7.70944L16.0731 7.59096Z" fill="var(--fill-0, white)"/>
<path d="M18.7459 8.83497L18.9835 11.8561L20.112 11.0268L18.7459 8.83497Z" fill="var(--fill-0, white)"/>
<path d="M20.0526 11.9746L19.1023 12.6855L19.4586 14.6403L20.0526 11.9746Z" fill="var(--fill-0, white)"/>
<path d="M15.7761 17.4838L18.5083 13.4556L19.0429 16.1805L15.7761 17.4838Z" fill="var(--fill-0, white)"/>
<path d="M15.3173 18.4499L15.6736 19.3482L17.6851 17.5014L15.3173 18.4499Z" fill="var(--fill-0, white)"/>
<path d="M14.6419 18.7665L12.243 19.9628L14.9937 19.6787L14.6419 18.7665Z" fill="var(--fill-0, white)"/>
<path d="M13.6348 18.4416L10.4644 20.0271L9.78987 17.8646L13.6348 18.4416Z" fill="var(--fill-0, white)"/>
<path d="M9.00462 17.8156L9.5985 19.7468L6.77126 18.0871L9.00462 17.8156Z" fill="var(--fill-0, white)"/>
<path d="M6.31921 13.4905L6.02846 17.4331L8.6449 17.1246L6.31921 13.4905Z" fill="var(--fill-0, white)"/>
<path d="M5.62599 12.8304L5.37235 16.3472L3.98047 13.2006L5.62599 12.8304Z" fill="var(--fill-0, white)"/>
<path d="M4.6488 9.12843L3.94357 12.4602L5.5584 12.1085L4.6488 9.12843Z" fill="var(--fill-0, white)"/>
<path d="M5.04494 7.93147L6.13991 11.4606L8.69484 7.06769L5.04494 7.93147Z" fill="var(--fill-0, white)"/>
<path d="M12.0407 12.9144L9.82714 17.1246L14.235 17.7906L12.0407 12.9144Z" fill="var(--fill-0, white)"/>
<path d="M17.9947 12.8537L14.9096 17.4838L12.6397 12.479L17.9947 12.8537Z" fill="var(--fill-0, white)"/>
<path d="M11.4387 12.479L6.67869 12.716L9.23282 16.6859L11.4387 12.479Z" fill="var(--fill-0, white)"/>
<path d="M9.4042 7.30697L6.67869 11.9661L11.4884 11.7376L9.4042 7.30697Z" fill="var(--fill-0, white)"/>
<path d="M14.7119 7.47332L12.1147 11.342L10.0319 6.9519L14.7119 7.47332Z" fill="var(--fill-0, white)"/>
<path d="M14.7709 4.82417L15.6057 6.84259L17.2079 6.9519L14.7709 4.82417Z" fill="var(--fill-0, white)"/>
<path d="M18.0174 6.37162L17.9737 6.65757L17.0645 5.83338L18.0174 6.37162Z" fill="var(--fill-0, white)"/>
<path d="M13.641 4.05885L10.4451 6.26229L14.7709 6.75846L13.641 4.05885Z" fill="var(--fill-0, white)"/>
<path d="M9.03685 4.38682L9.62712 5.9595L12.3932 4.02708L9.03685 4.38682Z" fill="var(--fill-0, white)"/>
<path d="M8.37366 4.7015L5.8721 6.97948L8.94585 6.2626L8.37366 4.7015Z" fill="var(--fill-0, white)"/>
</g>
</g>
</svg>
