<svg preserveAspectRatio="none" width="100%" height="100%" overflow="visible" style="display: block;" viewBox="0 0 20 20" fill="none" xmlns="http://www.w3.org/2000/svg">
<g id="tabler-icon-device-desktop-off">
<path id="Vector" d="M6.66626 3.33333H16.6663C16.8873 3.33333 17.0992 3.42113 17.2555 3.57741C17.4118 3.73369 17.4996 3.94565 17.4996 4.16667V12.5C17.4996 12.721 17.4118 12.933 17.2555 13.0893C17.0992 13.2455 16.8873 13.3333 16.6663 13.3333M13.3329 13.3333H3.33293C3.11191 13.3333 2.89995 13.2455 2.74367 13.0893C2.58739 12.933 2.49959 12.721 2.49959 12.5V4.16667C2.49959 3.94565 2.58739 3.73369 2.74367 3.57741C2.89995 3.42113 3.11191 3.33333 3.33293 3.33333M5.83293 16.6667H14.1663M7.49959 13.3333V16.6667M12.4996 13.3333V16.6667" stroke="var(--stroke-0, #858585)" stroke-width="1.25" stroke-linecap="round" stroke-linejoin="round"/>
<path id="Vector_2" d="M2.5 2.5L17.5 17.5" stroke="var(--stroke-0, #FF7162)" stroke-width="1.25" stroke-linecap="round" stroke-linejoin="round"/>
</g>
</svg>
